<svg xmlns="http://www.w3.org/2000/svg" viewBox="0 0 400 300" fill="none">
  <rect x="50" y="60" width="180" height="180" rx="8" fill="#F3F4F6" stroke="#D1D5DB" stroke-width="2"/>
  <rect x="70" y="80" width="100" height="12" rx="2" fill="#1E40AF"/>
  <rect x="70" y="100" width="140" height="8" rx="2" fill="#D1D5DB"/>
  <rect x="70" y="116" width="120" height="8" rx="2" fill="#D1D5DB"/>
  <rect x="70" y="132" width="130" height="8" rx="2" fill="#D1D5DB"/>
  <rect x="70" y="160" width="140" height="50" rx="4" fill="white" stroke="#D1D5DB" stroke-width="1"/>
  <circle cx="90" cy="185" r="12" fill="#1E40AF"/>
  <rect x="110" y="170" width="80" height="8" rx="2" fill="#E5E7EB"/>
  <rect x="110" y="184" width="60" height="8" rx="2" fill="#E5E7EB"/>
  <rect x="200" y="100" width="150" height="120" rx="8" fill="white" stroke="#1E40AF" stroke-width="2"/>
  <circle cx="230" cy="130" r="16" fill="#1E40AF"/>
  <path d="M224 130 L228 134 L238 124" stroke="white" stroke-width="2" stroke-linecap="round" stroke-linejoin="round"/>
  <rect x="260" y="120" width="70" height="8" rx="2" fill="#1E40AF"/>
  <rect x="260" y="134" width="50" height="6" rx="2" fill="#D1D5DB"/>
  <rect x="220" y="160" width="110" height="6" rx="2" fill="#E5E7EB"/>
  <rect x="220" y="172" width="100" height="6" rx="2" fill="#E5E7EB"/>
  <rect x="220" y="184" width="90" height="6" rx="2" fill="#E5E7EB"/>
  <circle cx="330" cy="70" r="30" fill="#FBBF24" opacity="0.3"/>
  <circle cx="330" cy="70" r="15" fill="#FBBF24"/>
  <path d="M325 70 L330 65 L335 70 L330 75 Z" fill="white"/>
  <path d="M60 250 Q200 230 340 250" stroke="#1E40AF" stroke-width="2" stroke-dasharray="4 4" fill="none"/>
</svg>
